<svg width="24" height="24" viewBox="0 0 24 24" fill="none" xmlns="http://www.w3.org/2000/svg">
<path fill-rule="evenodd" clip-rule="evenodd" d="M9.25023 9.40066C9.25023 7.92535 10.4695 6.70834 11.9998 6.70834C13.5301 6.70834 14.7494 7.92535 14.7494 9.40066C14.7494 10.876 13.5301 12.093 11.9998 12.093C10.4695 12.093 9.25023 10.876 9.25023 9.40066ZM11.9998 5.20834C9.66456 5.20834 7.75023 7.07368 7.75023 9.40066C7.75023 11.7276 9.66456 13.593 11.9998 13.593C14.3351 13.593 16.2494 11.7276 16.2494 9.40066C16.2494 7.07368 14.3351 5.20834 11.9998 5.20834ZM8.375 18.6656C8.375 17.1787 9.58039 15.9733 11.0673 15.9733H12.9317C14.4186 15.9733 15.624 17.1787 15.624 18.6656H17.124C17.124 16.3503 15.247 14.4733 12.9317 14.4733H11.0673C8.75196 14.4733 6.875 16.3503 6.875 18.6656H8.375Z" fill="#D0BC7A"/>
</svg>
